<?xml version="1.0" standalone="no"?>
<!DOCTYPE svg PUBLIC "-//W3C//DTD SVG 20010904//EN"
 "http://www.w3.org/TR/2001/REC-SVG-20010904/DTD/svg10.dtd">
<svg version="1.0" xmlns="http://www.w3.org/2000/svg"
 width="1328.000000pt" height="1328.000000pt" viewBox="0 0 1328.000000 1328.000000"
 preserveAspectRatio="xMidYMid meet">

<g transform="translate(0.000000,1328.000000) scale(0.100000,-0.100000)"
fill="#000000" stroke="none">
<path d="M4870 5950 l0 -180 25 0 c26 0 29 4 39 53 5 20 20 34 58 55 83 43
118 82 118 131 0 79 -64 120 -187 121 l-53 0 0 -180z m162 103 c41 -37 17 -84
-64 -131 l-38 -21 0 84 0 85 42 0 c24 0 49 -7 60 -17z"/>
<path d="M5328 6114 c-49 -26 -58 -59 -58 -209 l0 -135 30 0 30 0 0 61 0 62
36 -6 c50 -8 84 -42 84 -84 0 -30 3 -33 30 -33 l30 0 0 135 c0 102 -4 143 -15
165 -28 55 -109 76 -167 44z m110 -62 c6 -9 12 -43 12 -78 l0 -63 -27 15 c-16
7 -43 14 -61 14 l-33 0 3 57 c3 50 6 59 28 70 28 14 59 8 78 -15z"/>
<path d="M5690 5951 l0 -181 30 0 c27 0 30 3 30 30 0 88 119 92 136 5 5 -28
11 -35 30 -35 21 0 24 4 24 41 0 34 -6 47 -32 72 l-33 31 28 27 c47 47 31 140
-30 168 -15 7 -63 15 -105 18 l-78 6 0 -182z m162 102 c18 -16 24 -59 10 -79
-4 -7 -31 -26 -59 -43 l-53 -30 0 84 0 85 42 0 c24 0 49 -7 60 -17z"/>
<path d="M6117 6124 c-4 -4 -7 -16 -7 -26 0 -13 8 -18 31 -18 26 0 30 3 27 23
-3 22 -36 36 -51 21z"/>
<path d="M6374 6096 c-63 -63 -42 -118 67 -170 67 -32 85 -60 59 -92 -27 -32
-110 -6 -110 34 0 7 -11 12 -25 12 -20 0 -25 -5 -25 -24 0 -60 81 -105 152
-85 107 29 101 159 -8 198 -61 21 -84 39 -84 66 0 50 80 58 102 10 14 -32 58
-35 58 -4 0 50 -50 89 -116 89 -28 0 -44 -8 -70 -34z"/>
<path d="M6894 6096 c-38 -38 -44 -77 -19 -126 18 -34 32 -38 50 -13 10 13 9
21 -1 41 -30 58 46 112 89 64 32 -36 21 -65 -68 -176 -47 -58 -85 -108 -85
-111 0 -3 54 -5 120 -5 l120 0 0 25 c0 24 -2 25 -65 25 -36 0 -65 3 -65 6 0 3
22 34 49 68 60 77 71 97 71 136 0 23 -10 42 -34 66 -29 29 -41 34 -81 34 -40
0 -52 -5 -81 -34z"/>
<path d="M7355 6111 c-48 -22 -69 -44 -90 -94 -31 -75 -13 -150 48 -204 121
-107 307 -23 307 138 0 43 -26 104 -57 131 -53 48 -141 60 -208 29z m130 -45
c45 -19 75 -69 75 -125 0 -37 -6 -49 -39 -82 -34 -34 -44 -39 -86 -39 -42 0
-52 5 -86 39 -33 33 -39 45 -39 82 0 55 30 105 73 124 41 18 60 18 102 1z"/>
<path d="M7850 6123 c-30 -11 -60 -47 -66 -81 -8 -39 19 -102 42 -102 18 0 37
37 24 45 -17 10 -11 61 8 78 32 29 78 19 93 -20 12 -31 4 -46 -85 -158 -40
-49 -76 -96 -80 -102 -6 -10 20 -13 113 -13 l121 0 0 25 c0 24 -2 25 -65 25
-36 0 -65 2 -65 5 0 3 27 39 60 81 52 65 60 81 60 117 -1 45 -11 63 -50 90
-24 16 -79 21 -110 10z"/>
<path d="M8183 6114 c-9 -25 5 -141 21 -172 10 -20 34 -37 75 -55 62 -27 81
-48 81 -91 0 -21 5 -26 25 -26 l25 0 0 130 0 130 -25 0 c-24 0 -25 -3 -25 -55
0 -31 -4 -55 -10 -55 -22 0 -90 41 -100 59 -5 11 -10 49 -10 85 0 64 -1 66
-25 66 -14 0 -28 -7 -32 -16z"/>
<path d="M6117 6043 c-4 -3 -7 -66 -7 -140 l0 -133 30 0 30 0 0 140 c0 140 0
140 -23 140 -13 0 -27 -3 -30 -7z"/>
<path d="M5919 5434 c-60 -18 -140 -90 -170 -151 -17 -36 -23 -66 -23 -118 0
-155 99 -267 257 -290 46 -7 47 -7 47 19 0 24 -4 26 -40 26 -43 0 -110 29
-148 64 -70 63 -93 195 -51 282 40 84 125 137 219 137 226 0 329 -281 157
-428 -22 -19 -46 -35 -53 -35 -12 0 -34 -29 -34 -44 0 -12 32 -5 68 13 116 60
176 205 137 336 -13 46 -28 70 -74 116 -84 84 -180 108 -292 73z"/>
<path d="M6544 5438 c-83 -27 -173 -132 -189 -219 -6 -33 -4 -37 17 -41 22 -4
26 1 41 52 44 150 220 217 353 134 53 -32 99 -98 109 -154 6 -34 5 -36 -35
-54 -81 -36 -139 -104 -161 -190 -10 -39 -15 -46 -36 -46 -96 0 -199 72 -228
160 -9 28 -20 50 -25 50 -5 0 -15 3 -24 6 -22 8 -21 -13 4 -80 38 -101 154
-186 254 -186 l43 0 17 -61 c40 -145 204 -231 358 -189 82 23 179 128 193 208
6 39 6 39 63 46 78 9 133 38 187 98 103 114 98 283 -11 392 -78 78 -183 103
-294 70 -41 -12 -67 -29 -110 -72 -52 -53 -62 -72 -85 -159 -8 -29 -55 -33
-55 -5 0 84 -95 205 -184 235 -54 19 -153 21 -202 5z m857 -73 c24 -17 57 -50
74 -73 25 -37 30 -55 33 -115 4 -80 -9 -123 -55 -177 -35 -42 -116 -80 -169
-80 -40 0 -42 1 -49 38 -14 80 -98 178 -171 202 -41 14 -43 34 -10 105 44 96
114 137 228 133 67 -3 82 -7 119 -33z m-416 -252 c20 -95 88 -179 173 -217 40
-18 43 -22 38 -49 -10 -51 -38 -97 -82 -136 -74 -65 -171 -79 -259 -37 -60 28
-97 66 -124 126 -29 63 -27 73 22 93 23 9 59 31 79 47 39 33 98 138 98 177 0
18 5 23 25 23 19 0 26 -6 30 -27z m157 -62 c32 -37 63 -109 53 -120 -3 -2 -26
9 -52 25 -48 30 -96 95 -109 147 l-7 29 41 -21 c22 -11 55 -38 74 -60z m-272
40 c-13 -45 -26 -65 -74 -109 -53 -49 -91 -57 -76 -17 25 66 65 116 115 143
35 19 44 15 35 -17z"/>
</g>
</svg>
